<svg id="Layer_1" data-name="Layer 1" xmlns="http://www.w3.org/2000/svg" viewBox="0 0 215 66"><defs><style>.cls-1{fill:#3bb77e;}.cls-2{fill:#fdcd66;}</style></defs><rect class="cls-1" x="6.07" y="3.5" width="63" height="59" rx="7.47"/><path class="cls-2" d="M39.51,10.57a112.69,112.69,0,0,0,27-3.27L65.18,9.89q-3.65,7-7.3,14c-.71,1.37-1.43,2.75-2.16,4.12a.77.77,0,0,0,0,.8,41.4,41.4,0,0,1,2.76,7.13A18.88,18.88,0,0,1,59.32,41a17.58,17.58,0,0,1-.28,3,4.77,4.77,0,0,1-3.73,3.89A13.41,13.41,0,0,1,47,47.39c-.39-.13-.77-.3-1.12-.44.93-.14,1.87-.21,2.78-.42a2.52,2.52,0,0,0,2.19-2.67,7.92,7.92,0,0,0-.2-1.54,18.43,18.43,0,0,0-3.27-6.44,51.34,51.34,0,0,0-8.8-9.06A90.83,90.83,0,0,0,22.21,16.11c-2.13-1.1-4.3-2.13-6.46-3.19l-.08.09c.11.21.21.43.33.65q2.94,5.3,5.89,10.59a.82.82,0,0,0,.52.4,22.76,22.76,0,0,1,10,3.83,55,55,0,0,1,10.91,9.39,1.41,1.41,0,0,1,.1.18,46.78,46.78,0,0,0-8.16-3.46,38.9,38.9,0,0,0-8.61-1.94L38.11,52.72l8.18-16.47c.66,1.14,1.26,2.16,1.84,3.2.06.11,0,.32-.08.45L42.57,50.77l-3.42,6.79-1,1.87-1.86-3.22q-3-5.2-5.93-10.4c-1.7-3-3.39-6-5.1-9-.7-1.23-1.41-2.46-2.13-3.68-.09-.15-.33-.38-.36-.36-.21.14-.5.3-.56.51a2.77,2.77,0,0,0,.3,1.93A13,13,0,0,0,25.22,39a1.12,1.12,0,0,1,.29.48c-.5-.2-1-.38-1.5-.63a16.94,16.94,0,0,1-6.31-5.39,8.35,8.35,0,0,1-1.59-3.85,4.05,4.05,0,0,1,2.16-4.26l.34-.21q-5-9.25-10-18.48l.06-.1c.83.3,1.67.59,2.49.9a103.31,103.31,0,0,1,14.19,6.91,117.41,117.41,0,0,1,13.88,9.4c2.4,1.91,4.8,3.85,7,6A29.92,29.92,0,0,1,52.74,39a11,11,0,0,1,1.11,3.84,24.63,24.63,0,0,1-.06,2.71,2.27,2.27,0,0,0,1.76-1.22,6.15,6.15,0,0,0,.63-3.57A27.32,27.32,0,0,0,52,28.63c-3-4.64-6.23-9.17-9.37-13.74C41.61,13.46,40.57,12.05,39.51,10.57ZM60.38,12.3a54,54,0,0,1-13.85,2L53.67,25C55.87,20.83,58.09,16.64,60.38,12.3ZM28.8,29.9a19.39,19.39,0,0,0-5-1.72,7.77,7.77,0,0,0-3.46-.07,1.22,1.22,0,0,0-1,.85,3,3,0,0,0,.43,2.09A6,6,0,0,1,24,29.44,20,20,0,0,1,28.8,29.9Z"/><path class="cls-1" d="M93.41,14a13.35,13.35,0,0,0-2.35-4,5.11,5.11,0,0,0-3.15-1.27v-1c.16,0,.4,0,.72,0s.64,0,1,0a9.8,9.8,0,0,1,4.8,1.27c1.53.85,2.83,2.55,3.9,5.08l8.55,20.15,11-26h2.4l-14.35,33.5H105Z"/><path class="cls-1" d="M129.88,39.87a15,15,0,0,1-5.42-6.3,20.43,20.43,0,0,1-1.9-8.9,20.43,20.43,0,0,1,1.9-8.9,15,15,0,0,1,5.42-6.3,15.68,15.68,0,0,1,16.35,0,15,15,0,0,1,5.43,6.3,20.58,20.58,0,0,1,1.9,8.9,20.58,20.58,0,0,1-1.9,8.9,15,15,0,0,1-5.43,6.3,15.68,15.68,0,0,1-16.35,0Zm13.8-1.6a11.89,11.89,0,0,0,3.63-5.38,24.34,24.34,0,0,0,1.25-8.22,24.44,24.44,0,0,0-1.25-8.23,11.91,11.91,0,0,0-3.63-5.37,9.28,9.28,0,0,0-11.25,0,11.82,11.82,0,0,0-3.62,5.37,24.19,24.19,0,0,0-1.25,8.23,24.09,24.09,0,0,0,1.25,8.22,11.79,11.79,0,0,0,3.62,5.38,9.28,9.28,0,0,0,11.25,0Z"/><path class="cls-1" d="M162,40.7A2.75,2.75,0,0,1,160.71,39a13.24,13.24,0,0,1-.4-3.8v-27h4.5v27a7.85,7.85,0,0,0,.7,3.78,3,3,0,0,0,2.8,1.22h1v1h-4.5A6.41,6.41,0,0,1,162,40.7Z"/><path class="cls-1" d="M175.41,14.17a7.9,7.9,0,0,0-.7-3.77,2.94,2.94,0,0,0-2.8-1.23h-1v-1H184q9.69,0,14.67,4.3t5,12a17.68,17.68,0,0,1-2.1,8.73,14.41,14.41,0,0,1-6.23,5.87,21.89,21.89,0,0,1-10,2.1h-9.9Zm16.42,23.42a12.68,12.68,0,0,0,4.68-5.14,16.93,16.93,0,0,0,1.7-7.78,16.94,16.94,0,0,0-1.68-7.7,12.55,12.55,0,0,0-4.67-5.2,12.73,12.73,0,0,0-6.8-1.85,17.08,17.08,0,0,0-5,.8V38.77a22.83,22.83,0,0,0,5.1.65A12.47,12.47,0,0,0,191.83,37.59Z"/><path class="cls-2" d="M87.76,45.21c9.67-.2,19.34-.3,29-.38l29-.11,29,.11,14.5.14,14.51.24-14.51.25-14.5.14-29,.11-29-.11C107.1,45.52,97.43,45.42,87.76,45.21Z"/><rect class="cls-2" x="98.8" y="48.26" width="94.44" height="13.22" rx="4"/><path class="cls-1" d="M101.26,49.81H107v1.44h-4v2h3.72v1.44H103V58h-1.72Z"/><path class="cls-1" d="M114.93,54.88a3,3,0,1,1-3-3.18A2.9,2.9,0,0,1,114.93,54.88Zm-4.33,0c0,1.17.5,1.87,1.32,1.87s1.29-.7,1.29-1.86S112.74,53,111.89,53,110.6,53.6,110.6,54.9Z"/><path class="cls-1" d="M117.28,53.5c0-.61,0-1.15,0-1.66h1.66a9.68,9.68,0,0,1,0,1.07,1.94,1.94,0,0,1,2-1.21v1.61c-1.23,0-2,.3-2,2V58h-1.69Z"/><path class="cls-1" d="M128.56,55.57a1.52,1.52,0,0,0,1.72,1.17c.94,0,1.34-.37,1.34-1s-.39-1-1.79-1.28c-2.21-.52-2.76-1.33-2.76-2.43,0-1.42,1.06-2.38,3-2.38,2.16,0,3,1.16,3.14,2.35h-1.77c-.09-.5-.37-1-1.42-1-.71,0-1.14.29-1.14.87s.34.8,1.66,1.1c2.37.56,2.89,1.44,2.89,2.59,0,1.49-1.13,2.51-3.28,2.51s-3.16-1-3.35-2.5Z"/><path class="cls-1" d="M141.24,56.18c0,.59,0,1.23,0,1.78h-1.66c0-.17,0-.5-.05-.71a1.75,1.75,0,0,1-1.68.85c-1.25,0-2-.76-2-2.28v-4h1.69v3.64c0,.68.21,1.24.94,1.24s1.09-.41,1.09-1.63V51.84h1.7Z"/><path class="cls-1" d="M145.63,57.41V60.3H144v-7c0-.49,0-1,0-1.47h1.64c0,.16,0,.54,0,.76a1.93,1.93,0,0,1,1.78-.9c1.37,0,2.44,1.15,2.44,3,0,2.16-1.19,3.36-2.67,3.36A1.71,1.71,0,0,1,145.63,57.41Zm2.5-2.6c0-1.12-.46-1.76-1.26-1.76-1,0-1.3.62-1.3,1.85s.31,1.85,1.23,1.85S148.13,56.05,148.13,54.81Z"/><path class="cls-1" d="M153.88,57.41V60.3H152.2v-7c0-.49,0-1,0-1.47h1.64c0,.16,0,.54,0,.76a1.94,1.94,0,0,1,1.78-.9c1.38,0,2.44,1.15,2.44,3,0,2.16-1.19,3.36-2.67,3.36A1.71,1.71,0,0,1,153.88,57.41Zm2.5-2.6c0-1.12-.45-1.76-1.26-1.76-1,0-1.3.62-1.3,1.85s.31,1.85,1.23,1.85S156.38,56.05,156.38,54.81Z"/><path class="cls-1" d="M160.45,58V49.33h1.7V58Z"/><path class="cls-1" d="M166.26,51.84c.64,2.11,1.19,4,1.28,4.56h0c.13-.62.49-2,1.22-4.56h1.68l-2.05,6.29c-.59,1.76-1.08,2.29-2.54,2.29-.15,0-.51,0-.8-.05V59l.44,0a1.06,1.06,0,0,0,1.16-.89l-2.22-6.3Z"/><path class="cls-1" d="M172.54,49.33h1.69v1.51h-1.69Zm0,2.51h1.69V58h-1.69Z"/><path class="cls-1" d="M177,53.38c0-.52,0-1.09,0-1.54h1.64a6.11,6.11,0,0,1,.07.78,1.85,1.85,0,0,1,1.77-.92c1.23,0,2,.83,2,2.36V58h-1.69V54.25c0-.69-.23-1.18-1-1.18s-1.13.4-1.13,1.48V58H177Z"/><path class="cls-1" d="M190.75,57.21c0,2-.72,3.21-3,3.21S185,59.17,185,58.48h1.73c.11.42.42.7,1.08.7,1.1,0,1.3-.67,1.3-1.86V57a1.8,1.8,0,0,1-1.72.86c-1.61,0-2.53-1.32-2.53-3,0-1.91,1.14-3.22,2.67-3.22,1.05,0,1.49.49,1.58.78,0-.17.06-.54.07-.64h1.61c0,.54,0,1.17,0,1.75Zm-4.17-2.37c0,1,.53,1.68,1.28,1.68,1,0,1.29-.7,1.29-1.73s-.18-1.74-1.26-1.74C187.16,53.05,186.58,53.62,186.58,54.84Z"/></svg>