<svg id="Layer_1" data-name="Layer 1" xmlns="http://www.w3.org/2000/svg" viewBox="0 0 215 66"><defs><style>.cls-1{fill:#3bb77e;}.cls-2{fill:#fdcd66;}</style></defs><rect class="cls-1" x="6.07" y="3.5" width="63" height="59" rx="7.47"/><path class="cls-2" d="M39.51,10.57a112.69,112.69,0,0,0,27-3.27L65.18,9.89q-3.65,7-7.3,14c-.71,1.37-1.43,2.75-2.16,4.12a.77.77,0,0,0,0,.8,41.4,41.4,0,0,1,2.76,7.13A18.88,18.88,0,0,1,59.32,41a17.58,17.58,0,0,1-.28,3,4.77,4.77,0,0,1-3.73,3.89A13.41,13.41,0,0,1,47,47.39c-.39-.13-.77-.3-1.12-.44.93-.14,1.87-.21,2.78-.42a2.52,2.52,0,0,0,2.19-2.67,7.92,7.92,0,0,0-.2-1.54,18.43,18.43,0,0,0-3.27-6.44,51.34,51.34,0,0,0-8.8-9.06A90.83,90.83,0,0,0,22.21,16.11c-2.13-1.1-4.3-2.13-6.46-3.19l-.08.09c.11.21.21.43.33.65q2.94,5.3,5.89,10.59a.82.82,0,0,0,.52.4,22.76,22.76,0,0,1,10,3.83,55,55,0,0,1,10.91,9.39,1.41,1.41,0,0,1,.1.18,46.78,46.78,0,0,0-8.16-3.46,38.9,38.9,0,0,0-8.61-1.94L38.11,52.72l8.18-16.47c.66,1.14,1.26,2.16,1.84,3.2.06.11,0,.32-.08.45L42.57,50.77l-3.42,6.79-1,1.87-1.86-3.22q-3-5.2-5.93-10.4c-1.7-3-3.39-6-5.1-9-.7-1.23-1.41-2.46-2.13-3.68-.09-.15-.33-.38-.36-.36-.21.14-.5.3-.56.51a2.77,2.77,0,0,0,.3,1.93A13,13,0,0,0,25.22,39a1.12,1.12,0,0,1,.29.48c-.5-.2-1-.38-1.5-.63a16.94,16.94,0,0,1-6.31-5.39,8.35,8.35,0,0,1-1.59-3.85,4.05,4.05,0,0,1,2.16-4.26l.34-.21q-5-9.25-10-18.48l.06-.1c.83.3,1.67.59,2.49.9a103.31,103.31,0,0,1,14.19,6.91,117.41,117.41,0,0,1,13.88,9.4c2.4,1.91,4.8,3.85,7,6A29.92,29.92,0,0,1,52.74,39a11,11,0,0,1,1.11,3.84,24.63,24.63,0,0,1-.06,2.71,2.27,2.27,0,0,0,1.76-1.22,6.15,6.15,0,0,0,.63-3.57A27.32,27.32,0,0,0,52,28.63c-3-4.64-6.23-9.17-9.37-13.74C41.61,13.46,40.57,12.05,39.51,10.57ZM60.38,12.3a54,54,0,0,1-13.85,2L53.67,25C55.87,20.83,58.09,16.64,60.38,12.3ZM28.8,29.9a19.39,19.39,0,0,0-5-1.72,7.77,7.77,0,0,0-3.46-.07,1.22,1.22,0,0,0-1,.85,3,3,0,0,0,.43,2.09A6,6,0,0,1,24,29.44,20,20,0,0,1,28.8,29.9Z"/><path class="cls-1" d="M93.41,14a13.35,13.35,0,0,0-2.35-4,5.11,5.11,0,0,0-3.15-1.27v-1c.16,0,.4,0,.72,0s.64,0,1,0a9.8,9.8,0,0,1,4.8,1.27c1.53.85,2.83,2.55,3.9,5.08l8.55,20.15,11-26h2.4l-14.35,33.5H105Z"/><path class="cls-1" d="M129.88,39.87a15,15,0,0,1-5.42-6.3,20.43,20.43,0,0,1-1.9-8.9,20.43,20.43,0,0,1,1.9-8.9,15,15,0,0,1,5.42-6.3,15.68,15.68,0,0,1,16.35,0,15,15,0,0,1,5.43,6.3,20.58,20.58,0,0,1,1.9,8.9,20.58,20.58,0,0,1-1.9,8.9,15,15,0,0,1-5.43,6.3,15.68,15.68,0,0,1-16.35,0Zm13.8-1.6a11.89,11.89,0,0,0,3.63-5.38,24.34,24.34,0,0,0,1.25-8.22,24.44,24.44,0,0,0-1.25-8.23,11.91,11.91,0,0,0-3.63-5.37,9.28,9.28,0,0,0-11.25,0,11.82,11.82,0,0,0-3.62,5.37,24.19,24.19,0,0,0-1.25,8.23,24.09,24.09,0,0,0,1.25,8.22,11.79,11.79,0,0,0,3.62,5.38,9.28,9.28,0,0,0,11.25,0Z"/><path class="cls-1" d="M162,40.7A2.75,2.75,0,0,1,160.71,39a13.24,13.24,0,0,1-.4-3.8v-27h4.5v27a7.85,7.85,0,0,0,.7,3.78,3,3,0,0,0,2.8,1.22h1v1h-4.5A6.41,6.41,0,0,1,162,40.7Z"/><path class="cls-1" d="M175.41,14.17a7.9,7.9,0,0,0-.7-3.77,2.94,2.94,0,0,0-2.8-1.23h-1v-1H184q9.69,0,14.67,4.3t5,12a17.68,17.68,0,0,1-2.1,8.73,14.41,14.41,0,0,1-6.23,5.87,21.89,21.89,0,0,1-10,2.1h-9.9Zm16.42,23.42a12.68,12.68,0,0,0,4.68-5.14,16.93,16.93,0,0,0,1.7-7.78,16.94,16.94,0,0,0-1.68-7.7,12.55,12.55,0,0,0-4.67-5.2,12.73,12.73,0,0,0-6.8-1.85,17.08,17.08,0,0,0-5,.8V38.77a22.83,22.83,0,0,0,5.1.65A12.47,12.47,0,0,0,191.83,37.59Z"/><rect class="cls-2" x="98.56" y="48.26" width="94.44" height="12.19" rx="4"/><path class="cls-1" d="M107.07,49.89h-2.79V52.8h2.55v.45h-2.55v3.47h-.48V49.44h3.27Z"/><path class="cls-1" d="M112.41,51.77a2.34,2.34,0,0,1,1.83.82,2.51,2.51,0,0,1,.62,1.7,2.46,2.46,0,0,1-.8,1.89,2.34,2.34,0,0,1-1.65.65,2.29,2.29,0,0,1-1.82-.83,2.56,2.56,0,0,1-.62-1.72,2.38,2.38,0,0,1,.8-1.86A2.3,2.3,0,0,1,112.41,51.77Zm0,.43a1.83,1.83,0,0,0-1.48.66,2.14,2.14,0,0,0-.49,1.43,2.09,2.09,0,0,0,.63,1.59,1.87,1.87,0,0,0,1.34.52,1.84,1.84,0,0,0,1.49-.68,2.16,2.16,0,0,0,.49-1.43,2.06,2.06,0,0,0-.64-1.58A1.85,1.85,0,0,0,112.41,52.2Z"/><path class="cls-1" d="M118.25,51.88h.46v.79a1.67,1.67,0,0,1,1.51-.79h.08v.42h-.11a1.56,1.56,0,0,0-.74.18,1.22,1.22,0,0,0-.5.48,3.13,3.13,0,0,0-.24,1.41v2.36h-.46Z"/><path class="cls-1" d="M132.39,50.29l-.38.25a1.72,1.72,0,0,0-1.41-.76,1.49,1.49,0,0,0-1.15.47,1.34,1.34,0,0,0-.39,1c0,.59.4,1,1.21,1.36l.73.28a3.11,3.11,0,0,1,1.3.84,1.59,1.59,0,0,1,.34,1,2,2,0,0,1-.71,1.58,2.19,2.19,0,0,1-1.49.54,2.05,2.05,0,0,1-1.4-.5,2.34,2.34,0,0,1-.7-1.14l.46-.13a1.83,1.83,0,0,0,.68,1,1.55,1.55,0,0,0,1,.31,1.61,1.61,0,0,0,1.26-.55,1.57,1.57,0,0,0,.44-1.11,1.2,1.2,0,0,0-.32-.85,3,3,0,0,0-1.1-.64l-.71-.29c-1-.38-1.44-1-1.44-1.73a1.73,1.73,0,0,1,.66-1.41,2.18,2.18,0,0,1,3.14.49Z"/><path class="cls-1" d="M139.78,56.72v-.79a1.87,1.87,0,0,1-1.69.9,1.85,1.85,0,0,1-1.41-.58,1.66,1.66,0,0,1-.38-.69,3.79,3.79,0,0,1-.12-1.05V51.88h.46v2.53a2.92,2.92,0,0,0,.23,1.31,1.23,1.23,0,0,0,.52.49,1.59,1.59,0,0,0,.77.18,1.73,1.73,0,0,0,.81-.2,1.21,1.21,0,0,0,.55-.52,2.88,2.88,0,0,0,.26-1.38V51.88h.45v4.84Z"/><path class="cls-1" d="M143.93,59.26V51.88h.46v.95a2.32,2.32,0,0,1,3.73-.23,2.64,2.64,0,0,1-.17,3.58,2.33,2.33,0,0,1-1.64.65,2.27,2.27,0,0,1-1.92-1.06v3.49Zm2.38-7.06a1.79,1.79,0,0,0-1.46.66,2.19,2.19,0,0,0-.48,1.43,2.11,2.11,0,0,0,.62,1.59,1.83,1.83,0,0,0,1.32.52,1.8,1.8,0,0,0,1.47-.67,2.12,2.12,0,0,0,.5-1.44,2.09,2.09,0,0,0-.63-1.58A1.88,1.88,0,0,0,146.31,52.2Z"/><path class="cls-1" d="M152.14,59.26V51.88h.46v.95a2.25,2.25,0,0,1,1.93-1.06,2.3,2.3,0,0,1,1.8.83,2.52,2.52,0,0,1,.62,1.69,2.46,2.46,0,0,1-.8,1.89,2.31,2.31,0,0,1-1.64.65,2.25,2.25,0,0,1-1.91-1.06v3.49Zm2.37-7.06a1.81,1.81,0,0,0-1.46.66,2.19,2.19,0,0,0-.48,1.43,2.11,2.11,0,0,0,.62,1.59,2,2,0,0,0,2.8-.15,2.34,2.34,0,0,0-.13-3A1.91,1.91,0,0,0,154.51,52.2Z"/><path class="cls-1" d="M160.81,56.72h-.46V49.44h.46Z"/><path class="cls-1" d="M165.83,56.6l-2-4.72h.5L166.07,56l1.79-4.16h.49l-3.2,7.38h-.47Z"/><path class="cls-1" d="M171.61,49.92a.36.36,0,0,1,.26.11.39.39,0,0,1,0,.52.37.37,0,1,1-.26-.63Zm.22,2v4.84h-.45V51.88Z"/><path class="cls-1" d="M176,51.88v.79a1.84,1.84,0,0,1,1.68-.9,1.9,1.9,0,0,1,1.42.58,1.65,1.65,0,0,1,.37.69,3.79,3.79,0,0,1,.12,1.05v2.63h-.46V54.18a2.76,2.76,0,0,0-.24-1.3,1.06,1.06,0,0,0-.51-.49,1.62,1.62,0,0,0-.77-.18,1.68,1.68,0,0,0-.81.2,1.33,1.33,0,0,0-.56.51,3,3,0,0,0-.24,1.37v2.43h-.46V51.88Z"/><path class="cls-1" d="M187.76,51.88V56.8a2.53,2.53,0,0,1-.78,2,2.45,2.45,0,0,1-1.71.61,2.66,2.66,0,0,1-2.08-1l.3-.31a2.73,2.73,0,0,0,.8.65,2.22,2.22,0,0,0,1,.19,2,2,0,0,0,1.57-.64,2.25,2.25,0,0,0,.48-1.5v-1a2.32,2.32,0,0,1-3.73.23,2.49,2.49,0,0,1-.62-1.71,2.44,2.44,0,0,1,.79-1.87,2.33,2.33,0,0,1,1.64-.65,2.27,2.27,0,0,1,1.92,1.06v-.95Zm-2.38.32a1.83,1.83,0,0,0-1.47.66,2.15,2.15,0,0,0-.5,1.43,2.09,2.09,0,0,0,.63,1.59,1.89,1.89,0,0,0,1.34.52,1.8,1.8,0,0,0,1.46-.67,2.2,2.2,0,0,0,.48-1.44,2.11,2.11,0,0,0-.61-1.58A1.86,1.86,0,0,0,185.38,52.2Z"/><path class="cls-2" d="M87.76,45.22c9.67-.21,19.34-.31,29-.39l29-.11,29,.11,14.5.14,14.51.25-14.51.24-14.5.14-29,.12-29-.12C107.1,45.52,97.43,45.42,87.76,45.22Z"/></svg>