<?xml version="1.0" encoding="iso-8859-1"?>
<!-- Generator: Adobe Illustrator 19.0.0, SVG Export Plug-In . SVG Version: 6.00 Build 0)  -->
<svg version="1.1" id="Layer_1" xmlns="http://www.w3.org/2000/svg" xmlns:xlink="http://www.w3.org/1999/xlink" x="0px" y="0px"
	 viewBox="0 0 512 512" style="enable-background:new 0 0 512 512;" xml:space="preserve">
<path style="fill:#F6E27D;" d="M488.727,271.515H333.576c-12.853,0-23.273,10.42-23.273,23.273v54.303h-54.301h-54.305v-54.303
	c0-12.853-10.42-23.273-23.273-23.273H23.273C10.42,271.515,0,281.935,0,294.788v170.667c0,12.853,10.42,23.273,23.273,23.273
	h232.729h232.726c12.853,0,23.273-10.42,23.273-23.273V294.788C512,281.935,501.58,271.515,488.727,271.515z"/>
<path style="fill:#FFA733;" d="M272.462,30.093c-0.538-0.537-1.103-1.047-1.691-1.53c-0.152-0.126-0.32-0.233-0.476-0.358
	c-0.444-0.346-0.887-0.689-1.353-0.999c-0.146-0.098-0.301-0.178-0.448-0.273c-0.495-0.315-0.993-0.627-1.51-0.903
	c-0.109-0.057-0.225-0.104-0.335-0.161c-0.566-0.292-1.137-0.573-1.725-0.815c-0.078-0.033-0.16-0.057-0.237-0.088
	c-0.624-0.251-1.257-0.484-1.902-0.681c-0.085-0.025-0.174-0.042-0.259-0.067c-0.639-0.186-1.286-0.357-1.942-0.489
	c-0.197-0.039-0.403-0.057-0.602-0.09c-0.549-0.098-1.098-0.191-1.655-0.248c-0.765-0.076-1.539-0.116-2.324-0.116
	s-1.559,0.04-2.324,0.116c-0.56,0.057-1.114,0.154-1.666,0.248c-0.195,0.034-0.397,0.051-0.591,0.09
	c-0.653,0.13-1.297,0.299-1.936,0.489c-0.087,0.025-0.178,0.04-0.265,0.067c-0.642,0.197-1.271,0.428-1.894,0.68
	c-0.081,0.033-0.164,0.057-0.247,0.092c-0.579,0.239-1.142,0.518-1.704,0.805c-0.118,0.061-0.242,0.11-0.357,0.172
	c-0.504,0.27-0.991,0.574-1.474,0.881c-0.158,0.101-0.327,0.189-0.483,0.295c-0.442,0.295-0.866,0.625-1.288,0.953
	c-0.178,0.14-0.369,0.264-0.545,0.406c-0.532,0.439-1.043,0.906-1.538,1.395c-0.047,0.045-0.098,0.085-0.144,0.13L192.999,76.64
	c-9.089,9.089-9.089,23.824,0,32.914c4.544,4.543,10.501,6.816,16.457,6.816c5.956,0,11.913-2.273,16.455-6.817l6.817-6.817
	l-0.002,129.994c0,12.853,10.42,23.273,23.273,23.273c12.851,0,23.273-10.422,23.273-23.273l0.002-130l6.816,6.819
	c9.089,9.089,23.825,9.089,32.912,0c9.089-9.087,9.089-23.824,0-32.912L272.462,30.093z"/>
<path style="fill:#F5DC60;" d="M201.697,349.091v-54.303c0-12.853-10.42-23.273-23.273-23.273H23.273
	C10.42,271.515,0,281.935,0,294.788v170.667c0,12.853,10.42,23.273,23.273,23.273h232.729V349.091H201.697z"/>
<path style="fill:#FF7956;" d="M253.677,23.389c-0.56,0.057-1.114,0.154-1.666,0.248c-0.195,0.034-0.397,0.051-0.591,0.092
	c-0.653,0.13-1.297,0.299-1.936,0.487c-0.087,0.025-0.178,0.04-0.265,0.067c-0.642,0.197-1.271,0.428-1.894,0.68
	c-0.081,0.033-0.164,0.057-0.247,0.092c-0.579,0.239-1.142,0.518-1.704,0.805c-0.118,0.061-0.242,0.11-0.357,0.172
	c-0.504,0.27-0.991,0.574-1.474,0.881c-0.16,0.101-0.327,0.189-0.484,0.293c-0.442,0.295-0.866,0.625-1.288,0.953
	c-0.178,0.14-0.369,0.264-0.545,0.406c-0.532,0.439-1.043,0.906-1.538,1.393c-0.047,0.045-0.099,0.085-0.144,0.13l-46.545,46.547
	c-9.089,9.089-9.089,23.824,0,32.914c4.544,4.543,10.501,6.816,16.457,6.816c5.956,0,11.913-2.273,16.455-6.817l6.817-6.817
	l-0.002,129.998c0,12.853,10.42,23.273,23.273,23.273h0.002V23.273C255.216,23.273,254.442,23.313,253.677,23.389z"/>
<g>
</g>
<g>
</g>
<g>
</g>
<g>
</g>
<g>
</g>
<g>
</g>
<g>
</g>
<g>
</g>
<g>
</g>
<g>
</g>
<g>
</g>
<g>
</g>
<g>
</g>
<g>
</g>
<g>
</g>
</svg>
