<svg xmlns="http://www.w3.org/2000/svg" width="201.143" height="96.952" viewBox="0 0 201.143 96.952"><defs><style>.a,.b{fill:#4cb4e7;}.b{font-size:9px;font-family:Graphik-Medium, Graphik;font-weight:500;}</style></defs><g transform="translate(-892.327 -960.8)"><g transform="translate(892.327 960.8)"><path class="a" d="M636.3,645.342l27.908-.212.038,5.083-27.908.212" transform="translate(-635.853 -585.615)"/><path class="a" d="M636.288,643.3l27.908-.212.038,5.083-27.908.212" transform="translate(-635.902 -592.046)"/><path class="a" d="M636.272,641.261l27.908-.212.039,5.083-27.908.212" transform="translate(-635.951 -598.483)"/><path class="a" d="M636.257,639.3l41.951-.318.039,5.083-41.951.318" transform="translate(-636 -604.994)"/><path class="a" d="M636.241,637.264l41.951-.318.038,5.083-41.951.318" transform="translate(-636.048 -611.424)"/><path class="a" d="M636.225,635.3l55.914-.424.038,5.083-55.914.424" transform="translate(-636.097 -617.936)"/><path class="a" d="M636.21,633.265l55.914-.424.038,5.083-55.914.424" transform="translate(-636.146 -624.369)"/><path class="a" d="M636.195,631.225l55.914-.424.039,5.083-55.914.424" transform="translate(-636.195 -630.801)"/><g transform="translate(56.167 33.392)"><path d="M649.717,639.364l4.926-.037.013,1.923a5.992,5.992,0,0,1,4.8-2.321,6.053,6.053,0,0,1,5.6,2.824,6.875,6.875,0,0,1,5.628-2.912c4.6-.034,6.9,2.708,6.936,7.393l.083,11.074-5.034.037-.079-10.421c-.017-2.43-.968-3.842-3.178-3.826-1.885.017-3.248,1.333-3.227,4.382l.075,9.914-5.034.037-.079-10.421c-.017-2.43-.968-3.842-3.178-3.825-1.881.017-3.248,1.333-3.223,4.382l.075,9.915-4.964.037Z" transform="translate(-649.717 -638.84)"/><path d="M663.88,656.323l-7.337-17.3,5.214-.04,4.538,11.148,4.079-11.214,5.142-.039-10.3,26.62-4.961.038Z" transform="translate(-628.191 -638.714)"/></g><g transform="translate(56.53 56.942)"><path d="M649.8,644.834l14.954-.114.036,4.829-9.921.075.045,5.954,9.921-.075.036,4.829-9.921.075.082,10.892-5.033.038Z" transform="translate(-649.805 -643.848)"/><path d="M668.142,655.987a4.68,4.68,0,0,0-4.673-4.83,4.891,4.891,0,1,0,4.673,4.83m-14.338.146c-.05-6.426,4.635-9.474,8.727-9.507a7.243,7.243,0,0,1,5.412,2.1l-.013-1.778,4.959-.037.137,18.151-4.959.038-.017-2.031a7.056,7.056,0,0,1-5.449,2.438c-3.838.029-8.748-2.986-8.8-9.374" transform="translate(-637.196 -637.844)"/><path d="M658.852,651.158l3.078-.021-.042-5.823,4.96-.042.046,5.827,3.4-.029.033,4.469-3.4.025.042,5.773c.021,2.829.386,3.265,3.431,3.24l.033,4.648-.723,0c-5.757.046-7.655-1.9-7.7-7.821l-.046-5.807-3.078.021Z" transform="translate(-621.277 -642.107)"/><path d="M675.753,655.97a4.547,4.547,0,1,0-4.523,4.751,4.645,4.645,0,0,0,4.523-4.751m-13.939.1a9.379,9.379,0,1,1,9.449,9.37,9.382,9.382,0,0,1-9.449-9.37" transform="translate(-611.932 -638.04)"/><path d="M680.6,655.93a4.651,4.651,0,0,0-4.6-4.685,4.725,4.725,0,0,0,.071,9.441,4.656,4.656,0,0,0,4.527-4.756m-13.943.108a9.379,9.379,0,1,1,9.453,9.366,9.38,9.38,0,0,1-9.453-9.366" transform="translate(-596.676 -638.152)"/><path d="M671.561,646.663l4.926-.038.021,2.978a5.1,5.1,0,0,1,4.976-3.016l1.811-.017.033,4.831-2.965.021c-2.646.021-3.792,1.412-3.767,4.785l.067,8.569-4.964.038Z" transform="translate(-581.195 -638.011)"/><path d="M688.907,655.825A4.679,4.679,0,0,0,684.234,651a4.889,4.889,0,1,0,4.673,4.826m-14.338.146c-.05-6.426,4.636-9.474,8.727-9.5a7.228,7.228,0,0,1,5.412,2.1l-.016-1.782,4.964-.037.137,18.155-4.959.037-.017-2.035a7.045,7.045,0,0,1-5.449,2.438c-3.838.029-8.752-2.983-8.8-9.375" transform="translate(-571.713 -638.339)"/><g transform="translate(123.578)"><path d="M679.761,671.064l-.2-26.5,6.367-.05.083,10.891a6.63,6.63,0,0,1,6.094-3.531c3.555-.029,6.1,2.226,6.135,6.957l.091,12.1-6.368.046-.083-10.812c-.013-2.1-.843-3.123-2.692-3.107-1.882.013-3.157,1.163-3.14,3.543l.079,10.421Z" transform="translate(-679.557 -644.51)"/></g></g></g><text class="b" transform="translate(947.47 1055.752)"><tspan x="0" y="0">More than just a payment solution</tspan></text></g></svg>